<mxfile host="Electron" modified="2024-09-15T05:43:39.995Z" agent="Mozilla/5.0 (Windows NT 10.0; Win64; x64) AppleWebKit/537.36 (KHTML, like Gecko) draw.io/24.5.1 Chrome/124.0.6367.207 Electron/30.0.6 Safari/537.36" etag="KCN1EqthkB5xF0y40Aoh" version="24.5.1" type="device">
  <diagram name="Page-1" id="VRQ-eqveoxbWvyRMkIMF">
    <mxGraphModel dx="733" dy="500" grid="1" gridSize="10" guides="1" tooltips="1" connect="1" arrows="1" fold="1" page="1" pageScale="1" pageWidth="827" pageHeight="1169" math="0" shadow="0">
      <root>
        <mxCell id="0" />
        <mxCell id="1" parent="0" />
        <mxCell id="KTuFexH3HzrLYxm0M4yM-2" value="rx:" style="text;html=1;align=center;verticalAlign=middle;whiteSpace=wrap;rounded=0;" vertex="1" parent="1">
          <mxGeometry x="40" y="520" width="40" height="40" as="geometry" />
        </mxCell>
        <mxCell id="KTuFexH3HzrLYxm0M4yM-3" value="" style="endArrow=classic;html=1;rounded=0;entryX=1;entryY=1;entryDx=0;entryDy=0;" edge="1" parent="1" target="KTuFexH3HzrLYxm0M4yM-4">
          <mxGeometry width="50" height="50" relative="1" as="geometry">
            <mxPoint x="80" y="619.3299999999999" as="sourcePoint" />
            <mxPoint x="800" y="620" as="targetPoint" />
          </mxGeometry>
        </mxCell>
        <mxCell id="KTuFexH3HzrLYxm0M4yM-4" value="&lt;font style=&quot;font-size: 10px;&quot;&gt;time&lt;/font&gt;" style="text;html=1;align=center;verticalAlign=middle;whiteSpace=wrap;rounded=0;" vertex="1" parent="1">
          <mxGeometry x="700" y="590" width="80" height="30" as="geometry" />
        </mxCell>
        <mxCell id="KTuFexH3HzrLYxm0M4yM-5" value="set write&lt;div&gt;count 1&lt;/div&gt;" style="rounded=0;whiteSpace=wrap;html=1;dashed=1;dashPattern=1 1;" vertex="1" parent="1">
          <mxGeometry x="80" y="520" width="60" height="40" as="geometry" />
        </mxCell>
        <mxCell id="KTuFexH3HzrLYxm0M4yM-6" value="send write address 1" style="rounded=0;whiteSpace=wrap;html=1;" vertex="1" parent="1">
          <mxGeometry x="140" y="520" width="60" height="40" as="geometry" />
        </mxCell>
        <mxCell id="KTuFexH3HzrLYxm0M4yM-7" value="&lt;font style=&quot;font-size: 10px;&quot;&gt;send write data 1:1&lt;/font&gt;" style="rounded=0;whiteSpace=wrap;html=1;" vertex="1" parent="1">
          <mxGeometry x="200" y="520" width="60" height="40" as="geometry" />
        </mxCell>
        <mxCell id="KTuFexH3HzrLYxm0M4yM-11" value="set write&lt;div&gt;count 2&lt;/div&gt;" style="rounded=0;whiteSpace=wrap;html=1;dashed=1;dashPattern=1 1;" vertex="1" parent="1">
          <mxGeometry x="380" y="520" width="60" height="40" as="geometry" />
        </mxCell>
        <mxCell id="KTuFexH3HzrLYxm0M4yM-12" value="send write address 2" style="rounded=0;whiteSpace=wrap;html=1;" vertex="1" parent="1">
          <mxGeometry x="440" y="520" width="60" height="40" as="geometry" />
        </mxCell>
        <mxCell id="KTuFexH3HzrLYxm0M4yM-13" value="&lt;font style=&quot;font-size: 10px;&quot;&gt;send write data 2:1&lt;/font&gt;" style="rounded=0;whiteSpace=wrap;html=1;" vertex="1" parent="1">
          <mxGeometry x="500" y="520" width="60" height="40" as="geometry" />
        </mxCell>
        <mxCell id="KTuFexH3HzrLYxm0M4yM-17" value="" style="shape=curlyBracket;whiteSpace=wrap;html=1;rounded=1;labelPosition=left;verticalLabelPosition=middle;align=right;verticalAlign=middle;rotation=-90;" vertex="1" parent="1">
          <mxGeometry x="280" y="490" width="20" height="180" as="geometry" />
        </mxCell>
        <mxCell id="KTuFexH3HzrLYxm0M4yM-18" value="&lt;i&gt;&amp;lt;write count 1&amp;gt;&lt;/i&gt;&amp;nbsp;&lt;span style=&quot;background-color: initial;&quot;&gt;messages&lt;/span&gt;" style="text;html=1;align=center;verticalAlign=middle;whiteSpace=wrap;rounded=0;" vertex="1" parent="1">
          <mxGeometry x="210" y="590" width="160" height="30" as="geometry" />
        </mxCell>
        <mxCell id="KTuFexH3HzrLYxm0M4yM-19" value="" style="shape=curlyBracket;whiteSpace=wrap;html=1;rounded=1;labelPosition=left;verticalLabelPosition=middle;align=right;verticalAlign=middle;rotation=-90;" vertex="1" parent="1">
          <mxGeometry x="580" y="490" width="20" height="180" as="geometry" />
        </mxCell>
        <mxCell id="KTuFexH3HzrLYxm0M4yM-20" value="&lt;i&gt;&amp;lt;write count 2&amp;gt;&lt;/i&gt;&amp;nbsp;&lt;span style=&quot;background-color: initial;&quot;&gt;messages&lt;/span&gt;" style="text;html=1;align=center;verticalAlign=middle;whiteSpace=wrap;rounded=0;" vertex="1" parent="1">
          <mxGeometry x="510" y="590" width="160" height="30" as="geometry" />
        </mxCell>
        <mxCell id="KTuFexH3HzrLYxm0M4yM-21" value="..." style="text;html=1;align=center;verticalAlign=middle;whiteSpace=wrap;rounded=0;" vertex="1" parent="1">
          <mxGeometry x="690" y="520" width="20" height="40" as="geometry" />
        </mxCell>
        <mxCell id="KTuFexH3HzrLYxm0M4yM-22" value="&lt;font style=&quot;font-size: 8px;&quot;&gt;optional&lt;/font&gt;" style="text;html=1;align=center;verticalAlign=middle;whiteSpace=wrap;rounded=0;" vertex="1" parent="1">
          <mxGeometry x="270" y="490" width="30" height="10" as="geometry" />
        </mxCell>
        <mxCell id="KTuFexH3HzrLYxm0M4yM-23" value="" style="endArrow=none;html=1;rounded=0;strokeWidth=0.5;dashed=1;exitX=0.5;exitY=0;exitDx=0;exitDy=0;" edge="1" parent="1" source="KTuFexH3HzrLYxm0M4yM-5">
          <mxGeometry width="50" height="50" relative="1" as="geometry">
            <mxPoint x="170" y="510" as="sourcePoint" />
            <mxPoint x="260" y="500" as="targetPoint" />
          </mxGeometry>
        </mxCell>
        <mxCell id="KTuFexH3HzrLYxm0M4yM-24" value="" style="endArrow=none;html=1;rounded=0;strokeWidth=0.5;dashed=1;entryX=0.5;entryY=0;entryDx=0;entryDy=0;" edge="1" parent="1" target="KTuFexH3HzrLYxm0M4yM-11">
          <mxGeometry width="50" height="50" relative="1" as="geometry">
            <mxPoint x="305" y="501" as="sourcePoint" />
            <mxPoint x="370" y="510" as="targetPoint" />
          </mxGeometry>
        </mxCell>
        <mxCell id="KTuFexH3HzrLYxm0M4yM-25" value="" style="rounded=0;whiteSpace=wrap;html=1;" vertex="1" parent="1">
          <mxGeometry x="560" y="520" width="60" height="40" as="geometry" />
        </mxCell>
        <mxCell id="KTuFexH3HzrLYxm0M4yM-26" value="" style="rounded=0;whiteSpace=wrap;html=1;" vertex="1" parent="1">
          <mxGeometry x="620" y="520" width="60" height="40" as="geometry" />
        </mxCell>
        <mxCell id="KTuFexH3HzrLYxm0M4yM-27" value="&lt;font style=&quot;font-size: 10px;&quot;&gt;send write&lt;/font&gt;&lt;div style=&quot;font-size: 10px;&quot;&gt;&lt;font style=&quot;font-size: 10px;&quot;&gt;data 2:2&lt;/font&gt;&lt;/div&gt;" style="text;html=1;align=center;verticalAlign=middle;whiteSpace=wrap;rounded=0;" vertex="1" parent="1">
          <mxGeometry x="560" y="520" width="50" height="40" as="geometry" />
        </mxCell>
        <mxCell id="KTuFexH3HzrLYxm0M4yM-28" value="&lt;font style=&quot;font-size: 10px;&quot;&gt;send write&lt;/font&gt;&lt;div style=&quot;font-size: 10px;&quot;&gt;data 2:n&lt;/div&gt;" style="text;html=1;align=center;verticalAlign=middle;whiteSpace=wrap;rounded=0;" vertex="1" parent="1">
          <mxGeometry x="630" y="520" width="50" height="40" as="geometry" />
        </mxCell>
        <mxCell id="KTuFexH3HzrLYxm0M4yM-29" value="..." style="rounded=0;whiteSpace=wrap;html=1;strokeColor=none;" vertex="1" parent="1">
          <mxGeometry x="610" y="530" width="20" height="20" as="geometry" />
        </mxCell>
        <mxCell id="KTuFexH3HzrLYxm0M4yM-30" value="" style="rounded=0;whiteSpace=wrap;html=1;" vertex="1" parent="1">
          <mxGeometry x="260" y="520" width="60" height="40" as="geometry" />
        </mxCell>
        <mxCell id="KTuFexH3HzrLYxm0M4yM-31" value="" style="rounded=0;whiteSpace=wrap;html=1;" vertex="1" parent="1">
          <mxGeometry x="320" y="520" width="60" height="40" as="geometry" />
        </mxCell>
        <mxCell id="KTuFexH3HzrLYxm0M4yM-32" value="&lt;font style=&quot;font-size: 10px;&quot;&gt;send write&lt;/font&gt;&lt;div style=&quot;font-size: 10px;&quot;&gt;&lt;font style=&quot;font-size: 10px;&quot;&gt;data 1:2&lt;/font&gt;&lt;/div&gt;" style="text;html=1;align=center;verticalAlign=middle;whiteSpace=wrap;rounded=0;" vertex="1" parent="1">
          <mxGeometry x="260" y="520" width="50" height="40" as="geometry" />
        </mxCell>
        <mxCell id="KTuFexH3HzrLYxm0M4yM-33" value="&lt;font style=&quot;font-size: 10px;&quot;&gt;send write&lt;/font&gt;&lt;div style=&quot;font-size: 10px;&quot;&gt;data 1:n&lt;/div&gt;" style="text;html=1;align=center;verticalAlign=middle;whiteSpace=wrap;rounded=0;" vertex="1" parent="1">
          <mxGeometry x="330" y="520" width="50" height="40" as="geometry" />
        </mxCell>
        <mxCell id="KTuFexH3HzrLYxm0M4yM-34" value="..." style="rounded=0;whiteSpace=wrap;html=1;strokeColor=none;" vertex="1" parent="1">
          <mxGeometry x="310" y="530" width="20" height="20" as="geometry" />
        </mxCell>
      </root>
    </mxGraphModel>
  </diagram>
</mxfile>
